<svg id="fgf" xmlns="http://www.w3.org/2000/svg" viewBox="0 0 103.99 13"><title>fgf</title><path d="M131.26,8.55a6.5,6.5,0,1,0,6.5,6.5A6.5,6.5,0,0,0,131.26,8.55Zm0,9.08a2.58,2.58,0,1,1,2.58-2.58A2.58,2.58,0,0,1,131.26,17.63Z" transform="translate(-58.34 -8.55)"/><polygon points="7.29 3.54 7.29 0.32 3.95 0.32 0 0.32 0 3.54 0 4.95 0 7.99 0 12.68 3.95 12.68 3.95 7.99 7.22 7.99 7.22 4.95 3.95 4.95 3.95 3.54 7.29 3.54"/><polygon points="31.27 3.54 31.27 0.32 23.98 0.32 23.98 12.68 27.93 12.68 27.93 7.99 31.2 7.99 31.2 4.95 27.93 4.95 27.93 3.54 31.27 3.54"/><path d="M79.55,14.08H74.82v2.57h1.11a2.58,2.58,0,1,1-.36-3.58l2.21-3.24a6.49,6.49,0,1,0,1.77,8.43Z" transform="translate(-58.34 -8.55)"/><path d="M111.81,16.58a3.14,3.14,0,0,1-2.36,1,2.73,2.73,0,0,1-2.85-2.58,2.73,2.73,0,0,1,2.85-2.58,3.35,3.35,0,0,1,2.26.9l2-3.53a7.64,7.64,0,0,0-4.28-1.28c-4,0-7.17,2.91-7.17,6.49s3.21,6.49,7.17,6.49A7.61,7.61,0,0,0,114,20Z" transform="translate(-58.34 -8.55)"/><path d="M96.88,8.87h-3L89.25,21.23h3.91l.38-1.1h3.73l.42,1.1h3.89Zm-2.32,8.52.86-2.18.82,2.18Z" transform="translate(-58.34 -8.55)"/><polygon points="65.27 0.32 62.98 0.32 58.95 0.32 56.66 0.32 56.66 3.54 58.95 3.54 58.95 12.68 62.98 12.68 62.98 3.54 65.27 3.54 65.27 0.32"/><path d="M148.51,17.12a3.92,3.92,0,0,0,1.75-3.47,4.79,4.79,0,0,0-2.81-4.27,7.73,7.73,0,0,0-3.1-.52h-3.92V21.24h3.92v-3l2,3h4.46Zm-4.16-5h.44a1.37,1.37,0,0,1,0,2.74h-.44Z" transform="translate(-58.34 -8.55)"/><polygon points="92.33 0.31 96.78 0.31 98.17 2.9 99.57 0.31 103.99 0.31 100.13 7.36 100.13 12.69 96.19 12.69 96.19 7.35 92.33 0.31"/></svg>